<svg width="32" height="32" viewBox="0 0 32 32" fill="none" xmlns="http://www.w3.org/2000/svg">
<path d="M16 26C18.6522 26 21.1957 24.9464 23.0711 23.0711C24.9464 21.1957 26 18.6522 26 16C26 13.3478 24.9464 10.8043 23.0711 8.92893C21.1957 7.05357 18.6522 6 16 6C13.3478 6 10.8043 7.05357 8.92893 8.92893C7.05357 10.8043 6 13.3478 6 16C6 18.6522 7.05357 21.1957 8.92893 23.0711C10.8043 24.9464 13.3478 26 16 26ZM16 28C14.4241 28 12.8637 27.6896 11.4078 27.0866C9.95189 26.4835 8.62902 25.5996 7.51472 24.4853C6.40042 23.371 5.5165 22.0481 4.91345 20.5922C4.31039 19.1363 4 17.5759 4 16C4 14.4241 4.31039 12.8637 4.91345 11.4078C5.5165 9.95189 6.40042 8.62902 7.51472 7.51472C8.62902 6.40042 9.95189 5.5165 11.4078 4.91345C12.8637 4.31039 14.4241 4 16 4C19.1826 4 22.2348 5.26428 24.4853 7.51472C26.7357 9.76516 28 12.8174 28 16C28 19.1826 26.7357 22.2348 24.4853 24.4853C22.2348 26.7357 19.1826 28 16 28Z" fill="black"/>
<path d="M9.13403 25.768L10.866 26.768L9.36603 29.366C9.30085 29.4806 9.21363 29.5812 9.1094 29.662C9.00517 29.7428 8.88599 29.8022 8.75872 29.8368C8.63145 29.8713 8.4986 29.8804 8.36782 29.8634C8.23704 29.8464 8.11091 29.8037 7.9967 29.7377C7.88249 29.6718 7.78245 29.5839 7.70234 29.4792C7.62223 29.3744 7.56364 29.2548 7.52993 29.1273C7.49622 28.9998 7.48806 28.8669 7.50593 28.7362C7.5238 28.6056 7.56733 28.4797 7.63403 28.366L9.13403 25.768ZM22.866 25.768L21.134 26.768L22.634 29.366C22.6992 29.4806 22.7864 29.5812 22.8907 29.662C22.9949 29.7428 23.1141 29.8022 23.2413 29.8368C23.3686 29.8713 23.5015 29.8804 23.6322 29.8634C23.763 29.8464 23.8891 29.8037 24.0034 29.7377C24.1176 29.6718 24.2176 29.5839 24.2977 29.4792C24.3778 29.3744 24.4364 29.2548 24.4701 29.1273C24.5038 28.9998 24.512 28.8669 24.4941 28.7362C24.4763 28.6056 24.4327 28.4797 24.366 28.366L22.866 25.768ZM16 16H21C21.2652 16 21.5196 16.1053 21.7071 16.2929C21.8947 16.4804 22 16.7348 22 17C22 17.2652 21.8947 17.5195 21.7071 17.7071C21.5196 17.8946 21.2652 18 21 18H15C14.7348 18 14.4805 17.8946 14.2929 17.7071C14.1054 17.5195 14 17.2652 14 17V9.99997C14 9.73476 14.1054 9.4804 14.2929 9.29287C14.4805 9.10533 14.7348 8.99997 15 8.99997C15.2652 8.99997 15.5196 9.10533 15.7071 9.29287C15.8947 9.4804 16 9.73476 16 9.99997V16ZM2.82803 9.75797C2.18984 8.79628 1.90401 7.64341 2.01904 6.49497C2.13407 5.34654 2.64288 4.27326 3.45912 3.45725C4.27537 2.64124 5.34879 2.13274 6.49726 2.01804C7.64573 1.90335 8.79852 2.18951 9.76003 2.82797L8.29603 4.29197C7.73621 4.02461 7.10728 3.93737 6.49583 4.04228C5.88438 4.14719 5.32049 4.43908 4.88181 4.87776C4.44314 5.31644 4.15125 5.88032 4.04634 6.49177C3.94143 7.10322 4.02867 7.73216 4.29603 8.29197L2.83003 9.75797H2.82803ZM28.93 9.75797C29.5673 8.79643 29.8525 7.64409 29.7373 6.49629C29.6221 5.34848 29.1136 4.27583 28.2979 3.46013C27.4822 2.64443 26.4095 2.13588 25.2617 2.02066C24.1139 1.90545 22.9616 2.19067 22 2.82797L23.464 4.29197C24.0238 4.02461 24.6528 3.93737 25.2642 4.04228C25.8757 4.14719 26.4396 4.43908 26.8782 4.87776C27.3169 5.31644 27.6088 5.88032 27.7137 6.49177C27.8186 7.10322 27.7314 7.73216 27.464 8.29197L28.93 9.75797Z" fill="black"/>
</svg>
