<svg width="32" height="32" viewBox="0 0 32 32" fill="none" xmlns="http://www.w3.org/2000/svg">
<path d="M15.9998 18.6667C18.9412 18.6667 21.3332 16.2747 21.3332 13.3333C21.3332 10.392 18.9412 8 15.9998 8C13.0585 8 10.6665 10.392 10.6665 13.3333C10.6665 16.2747 13.0585 18.6667 15.9998 18.6667ZM15.9998 10.6667C17.4705 10.6667 18.6665 11.8627 18.6665 13.3333C18.6665 14.804 17.4705 16 15.9998 16C14.5292 16 13.3332 14.804 13.3332 13.3333C13.3332 11.8627 14.5292 10.6667 15.9998 10.6667Z" fill="black"/>
<path d="M15.2265 29.0854C15.4521 29.2465 15.7225 29.3331 15.9998 29.3331C16.2771 29.3331 16.5475 29.2465 16.7731 29.0854C17.1785 28.7987 26.7051 21.92 26.6665 13.3334C26.6665 7.45202 21.8811 2.66669 15.9998 2.66669C10.1185 2.66669 5.33313 7.45202 5.33313 13.3267C5.29446 21.92 14.8211 28.7987 15.2265 29.0854ZM15.9998 5.33335C20.4118 5.33335 23.9998 8.92135 23.9998 13.34C24.0278 19.2574 18.1491 24.5707 15.9998 26.3134C13.8518 24.5694 7.97179 19.2547 7.99979 13.3334C7.99979 8.92135 11.5878 5.33335 15.9998 5.33335Z" fill="black"/>
</svg>
