<svg width="64" height="64" viewBox="0 0 64 64" fill="none" xmlns="http://www.w3.org/2000/svg">
<path d="M32.5 3C16.7551 3 4 15.757 4 31.5C4 47.243 16.757 60 32.5 60C48.2449 60 61 47.243 61 31.5C61 15.757 48.243 3 32.5 3ZM46.4981 22.5253L41.8204 44.5677C41.4747 46.1306 40.5444 46.5094 39.2462 45.7739L32.1212 40.5225L28.6847 43.8322C28.3059 44.211 27.9841 44.5328 27.2486 44.5328L27.7543 37.2809L40.9581 25.3514C41.5336 24.8457 40.8312 24.5589 40.0718 25.0645L23.7533 35.3374L16.7202 33.142C15.1922 32.6602 15.1573 31.614 17.042 30.8785L44.5196 20.282C45.7957 19.8224 46.91 20.5928 46.4963 22.5234L46.4981 22.5253Z" fill="black"/>
</svg>
