<svg width="64" height="64" viewBox="0 0 64 64" fill="none" xmlns="http://www.w3.org/2000/svg">
<g clip-path="url(#clip0_1289_72)">
<path d="M32 0C23.515 0 15.37 3.3735 9.375 9.3725C3.37381 15.3739 0.00166235 23.5129 0 32C0 40.4835 3.375 48.6285 9.375 54.6275C15.37 60.6265 23.515 64 32 64C40.485 64 48.63 60.6265 54.625 54.6275C60.625 48.6285 64 40.4835 64 32C64 23.5165 60.625 15.3715 54.625 9.3725C48.63 3.3735 40.485 0 32 0Z" fill="url(#paint0_linear_1289_72)"/>
<path d="M14.4852 31.662C23.8152 27.598 30.0352 24.9185 33.1452 23.624C42.0352 19.9275 43.8802 19.2855 45.0852 19.2637C45.3502 19.2595 45.9402 19.325 46.3252 19.6362C46.6452 19.8987 46.7352 20.2537 46.7802 20.503C46.8202 20.752 46.8752 21.3195 46.8302 21.7625C46.3502 26.8225 44.2652 39.1015 43.2052 44.769C42.7602 47.167 41.8752 47.971 41.0202 48.0495C39.1602 48.2205 37.7502 46.8215 35.9502 45.642C33.1352 43.7955 31.5452 42.6465 28.8102 40.845C25.6502 38.763 27.7002 37.6185 29.5002 35.7485C29.9702 35.259 38.1602 27.8115 38.3152 27.136C38.3352 27.0515 38.3552 26.7365 38.1652 26.5705C37.9802 26.404 37.7052 26.461 37.5052 26.506C37.2202 26.57 32.7252 29.544 24.0052 35.4275C22.7302 36.3045 21.5752 36.732 20.5352 36.7095C19.3952 36.685 17.1952 36.0635 15.5602 35.5325C13.5602 34.881 11.9652 34.5365 12.1052 33.43C12.1752 32.854 12.9702 32.2645 14.4852 31.662Z" fill="white"/>
</g>
<defs>
<linearGradient id="paint0_linear_1289_72" x1="3200" y1="0" x2="3200" y2="6400" gradientUnits="userSpaceOnUse">
<stop stop-color="#2AABEE"/>
<stop offset="1" stop-color="#229ED9"/>
</linearGradient>
<clipPath id="clip0_1289_72">
<rect width="64" height="64" fill="white"/>
</clipPath>
</defs>
</svg>
