<svg width="64" height="64" viewBox="0 0 64 64" fill="none" xmlns="http://www.w3.org/2000/svg">
<path d="M32 57.6C38.7895 57.6 45.301 54.9029 50.1019 50.1019C54.9029 45.301 57.6 38.7895 57.6 32C57.6 25.2105 54.9029 18.699 50.1019 13.8981C45.301 9.09714 38.7895 6.4 32 6.4C25.2105 6.4 18.699 9.09714 13.8981 13.8981C9.09714 18.699 6.4 25.2105 6.4 32C6.4 38.7895 9.09714 45.301 13.8981 50.1019C18.699 54.9029 25.2105 57.6 32 57.6ZM32 64C14.3264 64 0 49.6736 0 32C0 14.3264 14.3264 0 32 0C49.6736 0 64 14.3264 64 32C64 49.6736 49.6736 64 32 64ZM22.048 35.744L14.0544 33.2512C12.3264 32.7232 12.3168 31.5328 14.4416 30.6784L45.5872 18.6464C47.392 17.9104 48.4224 18.8416 47.8368 21.1744L42.5312 46.1984C42.16 47.9808 41.088 48.4064 39.6 47.584L31.4368 41.5424L27.632 45.216C27.2416 45.5936 26.9248 45.9168 26.3232 45.9968C25.7248 46.08 25.232 45.9008 24.8704 44.9088L22.0864 35.7216L22.048 35.744Z" fill="#2AABEE"/>
</svg>
