<svg width="64" height="64" viewBox="0 0 64 64" fill="none" xmlns="http://www.w3.org/2000/svg">
<path d="M32.5 3C16.7597 3 4 15.7597 4 31.5C4 47.2403 16.7597 60 32.5 60C48.2403 60 61 47.2403 61 31.5C61 15.7597 48.2403 3 32.5 3ZM43.4606 35.1545C43.4606 35.1545 45.9811 37.6423 46.6016 38.7972C46.6194 38.8209 46.6283 38.8447 46.6342 38.8566C46.8866 39.2811 46.9459 39.6106 46.8213 39.857C46.6134 40.2667 45.9009 40.4686 45.6575 40.4864H41.2044C40.8956 40.4864 40.2484 40.4063 39.4647 39.8659C38.862 39.4444 38.2683 38.7527 37.6894 38.0787C36.8255 37.0753 36.0773 36.2084 35.3233 36.2084C35.2275 36.2083 35.1323 36.2233 35.0413 36.253C34.4713 36.437 33.7409 37.2505 33.7409 39.4177C33.7409 40.0945 33.2066 40.4834 32.8295 40.4834H30.79C30.0953 40.4834 26.4764 40.24 23.2702 36.8586C19.3455 32.7172 15.8127 24.4106 15.783 24.3334C15.5603 23.7961 16.0205 23.5081 16.5222 23.5081H21.0198C21.6195 23.5081 21.8155 23.8733 21.952 24.1969C22.1123 24.5739 22.7002 26.0731 23.665 27.7594C25.2295 30.5084 26.1884 31.6247 26.9573 31.6247C27.1015 31.623 27.2431 31.5863 27.37 31.5178C28.3734 30.9597 28.1864 27.3823 28.1419 26.6402C28.1419 26.5006 28.1389 25.04 27.6253 24.3394C27.2572 23.8317 26.6308 23.6387 26.2508 23.5675C26.4046 23.3553 26.6072 23.1832 26.8416 23.0658C27.5303 22.7214 28.7713 22.6709 30.0033 22.6709H30.6891C32.025 22.6887 32.3694 22.7748 32.8533 22.8966C33.833 23.1311 33.8538 23.7634 33.7677 25.9277C33.7409 26.5422 33.7142 27.2369 33.7142 28.0563C33.7142 28.2344 33.7053 28.4244 33.7053 28.6262C33.6756 29.7277 33.64 30.9775 34.4178 31.4911C34.5193 31.5547 34.6365 31.5886 34.7563 31.5891C35.0264 31.5891 35.8398 31.5891 38.0427 27.8098C38.722 26.5934 39.3124 25.3294 39.8091 24.0277C39.8536 23.9505 39.9842 23.713 40.1386 23.6209C40.2525 23.5629 40.3788 23.5333 40.5067 23.5348H45.7941C46.37 23.5348 46.7648 23.6209 46.8391 23.8436C46.9697 24.1969 46.8153 25.2745 44.4017 28.5431L43.3241 29.9652C41.1361 32.833 41.1361 32.9784 43.4606 35.1545Z" fill="black"/>
</svg>
