<svg width="64" height="64" viewBox="0 0 64 64" fill="none" xmlns="http://www.w3.org/2000/svg">
<path d="M31.9998 1.28003C15.0334 1.28003 1.27979 15.0336 1.27979 32C1.27979 48.9664 15.0334 62.72 31.9998 62.72C48.9662 62.72 62.7198 48.9664 62.7198 32C62.7198 15.0336 48.9662 1.28003 31.9998 1.28003ZM43.8142 35.9392C43.8142 35.9392 46.531 38.6208 47.1998 39.8656C47.219 39.8912 47.2286 39.9168 47.235 39.9296C47.507 40.3872 47.571 40.7424 47.4366 41.008C47.2126 41.4496 46.4446 41.6672 46.1822 41.6864H41.3822C41.0494 41.6864 40.3518 41.6 39.507 41.0176C38.8574 40.5632 38.2174 39.8176 37.5934 39.0912C36.6622 38.0096 35.8558 37.0752 35.043 37.0752C34.9398 37.0751 34.8371 37.0913 34.739 37.1232C34.1246 37.3216 33.3374 38.1984 33.3374 40.5344C33.3374 41.264 32.7614 41.6832 32.355 41.6832H30.1566C29.4078 41.6832 25.507 41.4208 22.051 37.776C17.8206 33.312 14.0126 24.3584 13.9806 24.2752C13.7406 23.696 14.2366 23.3856 14.7774 23.3856H19.6254C20.2718 23.3856 20.483 23.7792 20.6302 24.128C20.803 24.5344 21.4366 26.1504 22.4766 27.968C24.163 30.9312 25.1966 32.1344 26.0254 32.1344C26.1808 32.1326 26.3334 32.0931 26.4702 32.0192C27.5518 31.4176 27.3502 27.5616 27.3022 26.7616C27.3022 26.6112 27.299 25.0368 26.7454 24.2816C26.3486 23.7344 25.6734 23.5264 25.2638 23.4496C25.4296 23.2209 25.648 23.0354 25.9006 22.9088C26.643 22.5376 27.9806 22.4832 29.3086 22.4832H30.0478C31.4878 22.5024 31.859 22.5952 32.3806 22.7264C33.4366 22.9792 33.459 23.6608 33.3662 25.9936C33.3374 26.656 33.3086 27.4048 33.3086 28.288C33.3086 28.48 33.299 28.6848 33.299 28.9024C33.267 30.0896 33.2286 31.4368 34.067 31.9904C34.1763 32.059 34.3027 32.0956 34.4318 32.096C34.723 32.096 35.5998 32.096 37.9742 28.0224C38.7065 26.7113 39.3428 25.3488 39.8782 23.9456C39.9262 23.8624 40.067 23.6064 40.2334 23.5072C40.3562 23.4446 40.4924 23.4128 40.6302 23.4144H46.3294C46.9502 23.4144 47.3758 23.5072 47.4558 23.7472C47.5966 24.128 47.4302 25.2896 44.8286 28.8128L43.667 30.3456C41.3086 33.4368 41.3086 33.5936 43.8142 35.9392Z" fill="#0099FF"/>
</svg>
