<svg width="64" height="64" viewBox="0 0 64 64" fill="none" xmlns="http://www.w3.org/2000/svg">
<path d="M11.8749 0C8.72926 0.0122579 5.71595 1.2673 3.49162 3.49162C1.2673 5.71595 0.0122579 8.72926 0 11.8749V52.1251C0.0122579 55.2707 1.2673 58.2841 3.49162 60.5084C5.71595 62.7327 8.72926 63.9877 11.8749 64H52.1251C55.2707 63.9877 58.2841 62.7327 60.5084 60.5084C62.7327 58.2841 63.9877 55.2707 64 52.1251V11.8749C63.9877 8.72926 62.7327 5.71595 60.5084 3.49162C58.2841 1.2673 55.2707 0.0122579 52.1251 0H11.8749ZM11.8749 5.81818H52.1251C52.9218 5.81355 53.7114 5.96705 54.4484 6.26979C55.1853 6.57253 55.8548 7.01849 56.4182 7.58183C56.9815 8.14517 57.4275 8.8147 57.7302 9.55163C58.033 10.2886 58.1865 11.0782 58.1818 11.8749V52.1251C58.1865 52.9218 58.033 53.7114 57.7302 54.4484C57.4275 55.1853 56.9815 55.8548 56.4182 56.4182C55.8548 56.9815 55.1853 57.4275 54.4484 57.7302C53.7114 58.033 52.9218 58.1865 52.1251 58.1818H11.8749C11.0781 58.1868 10.2883 58.0336 9.55117 57.731C8.81407 57.4284 8.14438 56.9825 7.58096 56.419C7.01754 55.8556 6.57159 55.1859 6.26899 54.4488C5.96639 53.7117 5.81316 52.9219 5.81818 52.1251V11.8749C5.81355 11.0782 5.96705 10.2886 6.26979 9.55163C6.57253 8.8147 7.01849 8.14517 7.58183 7.58183C8.14517 7.01849 8.8147 6.57253 9.55163 6.26979C10.2886 5.96705 11.0782 5.81355 11.8749 5.81818ZM31.1825 21.0327C29.0444 21.0124 27.2262 21.0327 26.2051 21.5331C25.5215 21.8647 25.0007 22.6124 25.3178 22.6473C25.7164 22.7055 26.6124 22.8975 27.0924 23.5462C27.7033 24.3753 27.6829 26.2516 27.6829 26.2516C27.6829 26.2516 28.0233 31.4095 26.8509 32.0582C26.0451 32.5004 24.9425 31.6015 22.5571 27.4996C21.3411 25.3876 20.4218 23.0575 20.4218 23.0575C20.4218 23.0575 20.2473 22.624 19.9331 22.3971C19.5462 22.1149 19.0109 22.0218 19.0109 22.0218L13.3178 22.0567C13.3178 22.0567 12.4655 22.0916 12.16 22.4553C11.8749 22.7956 12.1367 23.4647 12.1367 23.4647C12.1367 23.4647 16.5905 33.8851 21.6349 39.136C26.2604 43.9564 31.5113 43.6364 31.5113 43.6364H33.8967C33.8967 43.6364 34.6124 43.5578 34.976 43.1709C35.3193 42.8073 35.3076 42.1236 35.3076 42.1236C35.3076 42.1236 35.2611 38.9324 36.7389 38.4553C38.2051 37.9985 40.0669 41.5447 42.0567 42.9091C43.5695 43.9418 44.7156 43.7149 44.7156 43.7149L50.0364 43.6364C50.0364 43.6364 52.8087 43.4647 51.4909 41.2713C51.3891 41.1025 50.7287 39.6596 47.5491 36.704C44.2065 33.6145 44.6516 34.1149 48.672 28.7622C51.1156 25.5011 52.0931 23.5113 51.7847 22.6473C51.4938 21.8415 49.696 22.0567 49.696 22.0567L43.7062 22.0916C43.7062 22.0916 43.264 22.0335 42.9353 22.2284C42.7092 22.3962 42.5292 22.6183 42.4116 22.8742C42.4116 22.8742 41.4575 25.3964 40.1949 27.5462C37.536 32.0669 36.4567 32.3171 36.0262 32.0349C35.0138 31.3745 35.264 29.3964 35.264 28C35.264 23.6015 35.9331 21.7833 33.9695 21.3091C33.3207 21.1491 32.8436 21.0473 31.1855 21.0327H31.1825Z" fill="#1976D2"/>
</svg>
