<svg width="63" height="64" viewBox="0 0 63 64" fill="none" xmlns="http://www.w3.org/2000/svg">
<path d="M53.8191 9.21275C50.9167 6.28096 47.4595 3.95642 43.6493 2.37472C39.8391 0.793021 35.7521 -0.0141833 31.6266 0.000188587C14.3412 0.000188587 0.253267 14.0881 0.253267 31.3736C0.253267 36.9138 1.70955 42.2957 4.43216 47.0444L0 63.3168L16.6206 58.9479C21.2111 61.4489 26.3714 62.7786 31.6266 62.7786C48.9121 62.7786 63 48.6906 63 31.4052C63 23.0158 59.7392 15.1329 53.8191 9.21275ZM31.6266 57.46C26.9412 57.46 22.3508 56.1937 18.3301 53.8193L17.3804 53.2494L7.50302 55.8454L10.1307 46.2213L9.49749 45.2399C6.89437 41.0831 5.51215 36.2782 5.50854 31.3736C5.50854 17.0007 17.2221 5.28712 31.595 5.28712C38.5598 5.28712 45.1131 8.00974 50.0201 12.9484C52.4498 15.367 54.3753 18.2438 55.685 21.412C56.9947 24.5803 57.6625 27.977 57.6497 31.4052C57.7131 45.7781 45.9995 57.46 31.6266 57.46ZM45.9362 37.9585C45.1447 37.5786 41.2824 35.6791 40.5859 35.3942C39.8578 35.1409 39.3513 35.0143 38.8131 35.7741C38.2749 36.5655 36.7869 38.3384 36.3437 38.8449C35.9005 39.3831 35.4256 39.4464 34.6342 39.0349C33.8427 38.655 31.31 37.8002 28.3342 35.1409C25.9915 33.0514 24.4402 30.4871 23.9653 29.6957C23.5221 28.9042 23.902 28.4926 24.3136 28.0811C24.6618 27.7328 25.105 27.163 25.4849 26.7198C25.8648 26.2766 26.0231 25.9283 26.2764 25.4218C26.5296 24.8836 26.403 24.4404 26.2131 24.0605C26.0231 23.6806 24.4402 19.8183 23.807 18.2354C23.1739 16.7158 22.509 16.9057 22.0342 16.8741H20.5146C19.9764 16.8741 19.1533 17.064 18.4251 17.8555C17.7286 18.6469 15.7025 20.5464 15.7025 24.4087C15.7025 28.271 18.5201 32.0067 18.9 32.5133C19.2799 33.0514 24.4402 40.966 32.2915 44.3535C34.1593 45.1766 35.6156 45.6514 36.7553 45.9997C38.6231 46.6012 40.3327 46.5062 41.694 46.3163C43.2136 46.0947 46.3477 44.4168 46.9809 42.5806C47.6457 40.7444 47.6457 39.1932 47.4241 38.8449C47.2025 38.4967 46.7276 38.3384 45.9362 37.9585Z" fill="#60D669"/>
</svg>
