<svg width="64" height="64" viewBox="0 0 64 64" fill="none" xmlns="http://www.w3.org/2000/svg">
<path d="M1.37365 31.617C1.37215 36.9942 2.78779 42.2447 5.4796 46.8726L1.11621 62.6845L17.4201 58.4417C21.9295 60.8782 26.982 62.1548 32.1163 62.1552H32.1298C49.0793 62.1552 62.8765 48.4664 62.8838 31.6411C62.887 23.488 59.6908 15.8214 53.8838 10.0535C48.0778 4.28601 40.356 1.10809 32.1286 1.10437C15.1771 1.10437 1.38089 14.7924 1.3739 31.617" fill="url(#paint0_linear_1289_75)"/>
<path d="M24.1717 18.3934C23.5754 17.0779 22.9478 17.0513 22.3807 17.0283C21.9163 17.0084 21.3854 17.0099 20.855 17.0099C20.3242 17.0099 19.4616 17.2081 18.7326 17.9982C18.0028 18.789 15.9463 20.7001 15.9463 24.587C15.9463 28.4741 18.7988 32.2305 19.1965 32.7581C19.5946 33.2848 24.7033 41.5165 32.7943 44.6832C39.5186 47.3149 40.887 46.7915 42.3463 46.6595C43.806 46.5281 47.0561 44.749 47.7192 42.9041C48.3828 41.0595 48.3828 39.4784 48.1839 39.148C47.9849 38.8188 47.454 38.6211 46.658 38.2262C45.8617 37.831 41.9482 35.9197 41.2186 35.656C40.4888 35.3925 39.9582 35.2611 39.4273 36.0521C38.8965 36.842 37.3721 38.6211 36.9075 39.148C36.4433 39.6761 35.9787 39.7418 35.1829 39.3467C34.3864 38.9503 31.8228 38.117 28.7813 35.4258C26.4149 33.3316 24.8173 30.7456 24.3529 29.9545C23.8885 29.1647 24.3032 28.7366 24.7023 28.3429C25.06 27.9889 25.4986 27.4203 25.897 26.9592C26.2939 26.4978 26.4264 26.1686 26.6918 25.6417C26.9575 25.1143 26.8245 24.653 26.6258 24.2578C26.4264 23.8626 24.8795 19.9554 24.1717 18.3934Z" fill="white"/>
<defs>
<linearGradient id="paint0_linear_1289_75" x1="3089.49" y1="6159.12" x2="3089.49" y2="1.10437" gradientUnits="userSpaceOnUse">
<stop stop-color="#1FAF38"/>
<stop offset="1" stop-color="#60D669"/>
</linearGradient>
</defs>
</svg>
