<svg width="32" height="32" viewBox="0 0 32 32" fill="none" xmlns="http://www.w3.org/2000/svg">
<path d="M27.9 8.48004C23.72 2.00004 15.16 0.0800357 8.54003 4.10004C2.08003 8.12004 2.65843e-05 16.88 4.18003 23.34L4.52003 23.86L3.12003 29.1L8.36003 27.7L8.88003 28.04C11.14 29.26 13.6 29.96 16.04 29.96C18.66 29.96 21.28 29.26 23.54 27.86C30 23.66 31.92 15.08 27.9 8.44004V8.48004ZM24.24 21.96C23.54 23 22.66 23.7 21.44 23.88C20.74 23.88 19.86 24.22 16.38 22.84C13.42 21.44 10.96 19.16 9.22003 16.54C8.18003 15.32 7.64003 13.74 7.48003 12.16C7.48003 10.76 8.00003 9.54004 8.88003 8.66004C9.22003 8.32004 9.58003 8.14004 9.92003 8.14004H10.8C11.14 8.14004 11.5 8.14004 11.68 8.84004C12.02 9.72004 12.9 11.82 12.9 12C13.08 12.18 13 13.52 12.2 14.28C11.76 14.78 11.68 14.8 11.86 15.16C12.56 16.2 13.44 17.26 14.3 18.14C15.34 19.02 16.4 19.72 17.62 20.24C17.96 20.42 18.32 20.42 18.5 20.06C18.68 19.72 19.54 18.84 19.9 18.48C20.24 18.14 20.42 18.14 20.78 18.3L23.58 19.7C23.92 19.88 24.28 20.04 24.46 20.22C24.64 20.74 24.64 21.44 24.28 21.96H24.24Z" fill="white"/>
</svg>
