<svg width="39" height="30" viewBox="0 0 39 30" fill="none" xmlns="http://www.w3.org/2000/svg">
<path d="M19.0613 0.0555094C18.4002 0.205836 17.8578 0.656817 17.5623 1.2908C17.4892 1.45093 17.4038 1.67969 17.3764 1.79734C17.3094 2.07839 17.3094 2.62741 17.3764 2.90845C17.4526 3.21891 17.675 3.68296 17.8548 3.89538L18.0102 4.08165L17.9096 4.19603L17.8091 4.31368L17.611 4.16989C17.2363 3.90192 16.8706 3.78427 16.4075 3.781C16.0327 3.781 15.7585 3.84636 15.4325 4.01956C14.6769 4.42152 14.2199 5.20257 14.2168 6.11106C14.2168 6.5359 14.2808 6.83329 14.4545 7.1895C14.8414 7.99669 15.5544 8.46401 16.3984 8.46401C17.154 8.46401 17.803 8.09473 18.2174 7.43459C18.2996 7.30388 18.3727 7.17642 18.3788 7.15355C18.3849 7.13067 18.4154 7.12414 18.4581 7.13721L18.5251 7.16009V9.3725C18.5251 10.5947 18.5099 11.7549 18.4946 11.9607C18.3849 13.2941 18.1107 14.3398 17.5775 15.4902C17.2302 16.2352 16.7183 17.0653 16.1424 17.8202C16.0785 17.9052 16.0449 17.915 15.6458 17.9738C14.037 18.2026 12.5288 18.6143 11.4868 19.1111C11.0481 19.3169 10.8683 19.4215 10.524 19.6634C10.1614 19.9183 10.1249 19.915 9.70439 19.5392C8.16876 18.1699 7.07189 16.781 6.3254 15.2581C5.62767 13.8333 5.25595 12.3431 5.18892 10.7026L5.17064 10.2124L5.36868 10.4085C5.85314 10.8823 6.41072 11.1045 7.02314 11.0653C7.39486 11.0457 7.61728 10.9836 7.9372 10.8137C8.50697 10.5163 8.95181 9.92479 9.11329 9.25812C9.18337 8.96727 9.19861 8.42152 9.14072 8.15355C8.88783 6.92152 7.81228 6.09146 6.6697 6.24178C6.35587 6.281 5.99025 6.41172 5.7404 6.57185C5.52103 6.71237 5.11579 7.12087 4.79892 7.5261L4.55517 7.83655L4.53689 6.96401C4.51556 6.02283 4.49118 5.85943 4.3297 5.47708C4.0372 4.781 3.46743 4.27446 2.77884 4.09472C2.48634 4.01956 1.99884 4.0261 1.6972 4.11433C0.911106 4.33656 0.289544 4.99995 0.0732157 5.84963C-0.0120968 6.17643 -0.00600308 6.80388 0.08845 7.12414C0.289544 7.82022 0.694778 8.33002 1.29501 8.64374C1.70939 8.85943 2.18775 8.93786 2.62345 8.85943L2.76665 8.83329L2.83368 9.11433C3.19017 10.5686 4.02197 13.7843 4.78064 16.6307L5.37783 18.8627L5.74345 18.8692C6.15478 18.8758 6.37111 18.9379 6.67275 19.1339C7.67212 19.7843 7.83665 21.2745 7.0079 22.1568C6.89517 22.2745 6.7215 22.4183 6.61181 22.4803C6.50212 22.5424 6.41072 22.5947 6.40767 22.5947C6.40158 22.6013 6.56915 23.2222 7.13283 25.2451C7.37048 26.1078 7.56243 26.8496 7.55634 26.8954C7.52892 27.1372 7.5472 27.3758 7.60814 27.5C7.9372 28.1699 9.15595 28.7614 11.1517 29.2124C12.7177 29.5653 14.552 29.7973 16.9407 29.9411C17.8456 29.9934 21.185 29.9934 22.0747 29.9411C26.2824 29.6862 29.2623 29.0849 30.6974 28.2058C31.2763 27.8529 31.5627 27.4052 31.4774 26.9967C31.453 26.879 31.4743 26.7712 31.6724 26.0555C32.3213 23.696 32.6017 22.6568 32.6017 22.6241C32.6017 22.6045 32.5224 22.5457 32.428 22.4967C32.1934 22.3692 31.8217 21.9705 31.6937 21.7091C31.1331 20.562 31.7242 19.183 32.8942 18.9019C33.0495 18.866 33.208 18.8529 33.3817 18.8627C33.5949 18.8758 33.6406 18.8692 33.6498 18.8268C34.3688 16.2091 35.9563 10.1372 36.2213 8.98688L36.2457 8.8725L36.5961 8.88231C37.044 8.89865 37.3426 8.83329 37.7052 8.64374C38.3054 8.33002 38.7106 7.82022 38.9117 7.12414C39.0062 6.80388 39.0123 6.17643 38.927 5.84963C38.7106 4.99995 38.0891 4.33656 37.303 4.11433C37.0013 4.0261 36.5138 4.01956 36.2213 4.09472C35.5724 4.26466 35.0117 4.74178 34.7223 5.36924C34.509 5.83329 34.4877 5.96728 34.4633 6.96728L34.445 7.84309L34.2927 7.64048C34.0367 7.29734 33.4517 6.6895 33.2628 6.57185C32.0745 5.82348 30.5724 6.33002 30.0088 7.66662C29.8138 8.12741 29.765 8.75812 29.8869 9.25812C30.0484 9.92479 30.4932 10.5163 31.063 10.8137C31.3829 10.9836 31.6053 11.0457 31.977 11.0653C32.5986 11.1045 33.1531 10.879 33.6467 10.3921L33.86 10.1797L33.8417 10.6699C33.7412 13.1013 32.9856 15.2091 31.4865 17.2222C30.8558 18.0718 29.113 19.8366 28.9088 19.8366C28.8662 19.8366 28.7169 19.7549 28.5767 19.6535C27.9887 19.232 27.1356 18.8464 26.0966 18.5326C25.3562 18.3104 24.1009 18.049 23.2356 17.9379L22.937 17.8986L22.6993 17.5817C21.6116 16.1143 20.9535 14.6601 20.6731 13.098C20.5086 12.1666 20.4995 12.013 20.4842 9.5359L20.469 7.22218L20.5482 7.18623C20.5909 7.16335 20.6305 7.15355 20.6366 7.16009C20.6427 7.16662 20.7036 7.2712 20.7737 7.38884C20.9321 7.65355 21.249 7.98688 21.4958 8.14374C21.8249 8.35616 22.1113 8.44113 22.55 8.45747C22.876 8.46728 22.9735 8.46074 23.1746 8.39865C23.9424 8.17316 24.5488 7.52283 24.7407 6.71237C24.823 6.3725 24.823 5.88231 24.7407 5.54244C24.4299 4.23198 23.1381 3.47381 21.9315 3.89211C21.7365 3.96074 21.4653 4.1078 21.3282 4.22218L21.2551 4.28427L21.1576 4.16009L21.0631 4.03917L21.2094 3.84309C21.7365 3.14375 21.8462 2.12414 21.4806 1.31695C21.0449 0.365967 20.0211 -0.166713 19.0613 0.0555094ZM19.9693 15.9346C20.5634 16.0915 21.0906 16.6535 21.252 17.3071C21.2795 17.415 21.3008 17.6339 21.3008 17.8104C21.3038 18.6503 20.8133 19.3692 20.0516 19.647C19.7591 19.7516 19.2655 19.7516 18.9669 19.647C18.2174 19.379 17.6994 18.6241 17.7024 17.8006C17.7055 17 18.2204 16.2254 18.9151 15.9771C19.2807 15.8464 19.5854 15.8333 19.9693 15.9346Z" fill="#E800B5"/>
</svg>
