<?xml version="1.0" encoding="UTF-8" standalone="no" ?>
<!DOCTYPE svg PUBLIC "-//W3C//DTD SVG 1.1//EN" "http://www.w3.org/Graphics/SVG/1.1/DTD/svg11.dtd">
<svg xmlns="http://www.w3.org/2000/svg" xmlns:xlink="http://www.w3.org/1999/xlink" version="1.1" width="500" height="500" viewBox="0 0 500 500" xml:space="preserve">
<desc>Created with Fabric.js 3.6.3</desc>
<defs>
</defs>
<rect x="0" y="0" width="100%" height="100%" fill="#ffffff"></rect>
<g transform="matrix(1 0 0 1 250.499999972507 259.6790000000001)" style=""  ><path fill="#000000" opacity="1" d="M-19.47-24.91Q5.49-25.26 2.37-25.26L2.37-25.26Q20.97-25.26 33.73-18.96Q46.50-12.67 52.91-1.46Q59.32 9.75 59.32 24.42L59.32 24.42Q59.32 37.93 53.66 49.08Q48.00 60.23 34.14 67.28Q20.28 74.33-2.83 74.33L-2.83 74.33Q-6.41 74.33-15.08 73.98Q-23.74 73.63-32.64 73.63L-32.64 73.63Q-50.66 73.63-60.59 74.33L-60.59 74.33L-60.59 69.59Q-52.05 69.24-48.17 67.74Q-44.30 66.24-42.86 62.20Q-41.42 58.15-41.42 49.26L-41.42 49.26L-41.42-68.12Q-41.42-77.02-42.86-81.06Q-44.30-85.10-48.17-86.60Q-52.05-88.11-60.59-88.45L-60.59-88.45L-60.59-93.19Q-37.37-92.50 8.03-92.50L8.03-92.50Q37.84-92.50 50.43-93.19L50.43-93.19Q48.69-78.06 48.69-65.23L48.69-65.23Q48.69-55.99 49.39-50.56L49.39-50.56L43.96-50.56Q42.34-65.92 39.74-73.43Q37.14-80.94 30.96-84.35Q24.78-87.76 12.30-87.76L12.30-87.76L-0.29-87.76Q-8.84-87.76-12.71-86.37Q-16.58-84.99-18.02-81.00Q-19.47-77.02-19.47-68.12L-19.47-68.12L-19.47-24.91ZM-19.47 49.26Q-19.47 58.04-18.31 62.20Q-17.16 66.35-13.86 67.97Q-10.57 69.59-3.52 69.59L-3.52 69.59Q11.84 69.59 20.51 63.81Q29.17 58.04 32.46 48.22Q35.76 38.40 35.76 24.65L35.76 24.65Q35.76 8.82 31.71-1.11Q27.67-11.05 18.60-15.90Q9.53-20.75-5.72-20.75L-5.72-20.75L-19.47-20.52L-19.47 49.26Z"/></g><g transform="matrix(0.4695431472081219 0 0 0.0592033383728436 250.00000000000003 254.00511531890035)"  >
<rect style="stroke: none; stroke-width: 1; stroke-dasharray: none; stroke-linecap: butt; stroke-dashoffset: 0; stroke-linejoin: miter; stroke-miterlimit: 4; fill: rgb(255,255,255); fill-rule: evenodd; opacity: 1;"  x="-393.5" y="-393.5" rx="0" ry="0" width="787" height="787" />
</g>
<g transform="matrix(1 0 0 1 256.00347226350607 254.56274944292673)" style=""  ><path fill="#000000" opacity="1" d="M-67.01 8.00C-65.59 7.85-64.67 7.82-63.42 7.82L-61.55 7.82C-57.77 7.82-55.23 5.66-55.23 2.52C-55.23-0.52-57.64-2.59-61.23-2.59L-64.89-2.59L-64.89-6.17C-64.89-6.87-64.91-7.54-64.96-8.19C-64.54-8.21-64.14-8.21-63.64-8.21L-57.87-8.21C-56.55-8.21-56.35-8.49-56.35-8.84C-56.35-9.11-56.42-9.56-56.67-9.91C-56.97-9.66-57.57-9.61-58.59-9.61L-64.02-9.61C-65.19-9.61-66.43-9.56-67.48-9.43C-67.28-8.04-67.23-7.04-67.23-5.80L-67.23 6.60C-67.23 7.12-67.13 7.67-67.01 8.00ZM-61.38-1.19C-59.11-1.19-57.62 0.38-57.62 2.62C-57.62 4.91-59.11 6.43-61.33 6.43L-63.79 6.43C-64.17 6.43-64.54 6.43-64.89 6.45L-64.89-1.19Z"/><path fill="#000000" opacity="1" d="M-47.01-0.69C-47.01 4.44-43.85 7.95-39.19 7.95C-34.31 7.95-31.00 4.26-31.00-1.09C-31.00-6.22-34.16-9.73-38.84-9.73C-43.70-9.73-47.01-6.05-47.01-0.69ZM-44.50-0.94C-44.50-5.33-42.31-8.31-39.07-8.31C-35.78-8.31-33.52-5.28-33.52-0.84C-33.52 3.54-35.71 6.53-38.97 6.53C-42.26 6.53-44.50 3.49-44.50-0.94Z"/><path fill="#000000" opacity="1" d="M-12.55-8.21C-11.25-8.21-11.03-8.49-11.03-8.84C-11.03-9.11-11.11-9.56-11.35-9.91C-11.65-9.66-12.28-9.61-13.27-9.61L-18.75-9.61C-19.92-9.61-21.16-9.56-22.21-9.43C-22.01-8.04-21.96-7.09-21.96-5.85L-21.96 6.38C-21.96 7.70-21.54 7.92-21.02 7.92C-20.59 7.92-19.87 7.82-19.35 7.57C-19.60 7.27-19.62 6.68-19.62 5.68L-19.62-6.05C-19.62-6.77-19.65-7.49-19.70-8.19C-19.27-8.21-18.85-8.21-18.38-8.21Z"/><path fill="#000000" opacity="1" d="M8.91 6.38C8.91 7.70 9.36 7.92 9.91 7.92C10.36 7.92 11.13 7.82 11.68 7.57C11.33 7.27 11.25 6.68 11.25 5.68L11.25-6.25C11.25-7.42 11.21-8.64 11.08-9.68C10.13-9.68 9.16-9.56 8.74-9.46L0.02 5.13L0.02-6.25C0.02-7.42-0.02-8.64-0.15-9.68C-1.15-9.68-2.14-9.56-2.56-9.46C-2.37-8.04-2.32-7.12-2.32-5.87L-2.32 6.38C-2.32 7.70-1.89 7.92-1.37 7.92C-0.95 7.92-0.22 7.82 0.30 7.57L8.91-6.77Z"/><path fill="#000000" opacity="1" d="M32.07 6.38C32.07 7.70 32.52 7.92 33.04 7.92C33.52 7.92 34.29 7.82 34.84 7.57C34.46 7.27 34.41 6.68 34.41 5.68L34.41-6.25C34.41-7.42 34.36-8.64 34.24-9.68C33.29-9.68 32.32-9.56 31.90-9.46C32.05-8.04 32.07-7.12 32.07-5.87L32.07-1.74L23.31-1.74L23.31-6.25C23.31-7.42 23.26-8.64 23.13-9.68C22.14-9.68 21.14-9.56 20.72-9.46C20.92-8.04 20.97-7.12 20.97-5.87L20.97 6.38C20.97 7.70 21.39 7.92 21.91 7.92C22.34 7.92 23.06 7.82 23.58 7.57C23.33 7.27 23.31 6.68 23.31 5.68L23.31-0.37L32.07-0.37Z"/><path fill="#000000" opacity="1" d="M52.84 6.38C52.84 7.70 53.29 7.92 53.81 7.92C54.28 7.92 55.05 7.82 55.58 7.57C55.23 7.27 55.18 6.68 55.18 5.68L55.18-6.25C55.18-7.42 55.13-8.66 55.00-9.71C53.61-9.63 52.66-9.61 51.42-9.61L50.00-9.61C46.21-9.61 43.65-7.52 43.65-4.48C43.65-1.96 45.44-0.15 48.21 0.33L44.72 5.63C44.10 6.60 43.60 7.27 43.13 7.57C43.45 7.85 44.12 7.92 44.55 7.92C45.09 7.92 45.69 7.70 46.49 6.35L50.32 0.43L52.84 0.43ZM49.75-8.21L52.74-8.21C52.81-7.42 52.84-6.72 52.84-5.87L52.84-0.97L49.80-0.97C47.53-0.97 46.04-2.46 46.04-4.60C46.04-6.77 47.53-8.21 49.75-8.21Z"/><path fill="#000000" opacity="1" d=""/></g></svg>