<svg width="128" height="36" viewBox="0 0 128 36" fill="none" xmlns="http://www.w3.org/2000/svg">
<path d="M14.4362 36C13.5717 36 12.8407 35.8613 12.2431 35.584C11.6583 35.3066 11.2133 34.9222 10.9082 34.4305C10.6158 33.9515 10.4696 33.4094 10.4696 32.8043C10.4696 32.1614 10.6095 31.5184 10.8892 30.8755C11.2833 31.3798 11.6901 31.739 12.1097 31.9534C12.5419 32.1677 13.006 32.2748 13.5018 32.2748C14.1883 32.2748 14.7795 32.0731 15.2753 31.6697C15.7712 31.2537 16.1843 30.6927 16.5149 29.9868C16.8073 29.3564 17.0234 28.6505 17.1633 27.8689C17.3031 27.0747 17.3731 26.2868 17.3731 25.5052C17.3731 24.0176 17.1124 22.8894 16.5912 22.1204C15.9682 21.2001 14.9893 20.74 13.6544 20.74C12.9297 20.74 12.3067 20.8661 11.7855 21.1182L8.69607 35.3382H3.07032L8.69607 9.4699C7.89511 9.49511 7.18951 9.64639 6.57926 9.92373C5.98172 10.1885 5.46683 10.6108 5.03457 11.1907C4.09376 12.4639 3.62336 14.5629 3.62336 17.4876C3.62336 18.3196 3.71871 18.9625 3.90942 19.4163C3.96027 19.5802 4.02384 19.7252 4.10012 19.8512C4.15097 19.9395 4.1764 20.0277 4.1764 20.116C2.77791 20.116 1.74176 19.8386 1.06794 19.284C0.355979 18.6915 0 17.7145 0 16.353C0 15.0167 0.247914 13.7498 0.743743 12.5522C1.25228 11.3546 2.02145 10.3019 3.05125 9.39426C4.15733 8.41097 5.56218 7.64828 7.26579 7.10621C8.96941 6.56413 10.9845 6.2931 13.3111 6.2931C13.7688 6.2931 14.2582 6.31831 14.7795 6.36874L15.7139 6.44437C17.5193 6.59565 18.5491 6.67759 18.8033 6.6902C19.4644 6.74062 20.1828 6.76584 20.9583 6.76584C22.3186 6.76584 23.4946 6.60826 24.4863 6.2931C24.4609 6.40656 24.41 6.66499 24.3337 7.06839C24.2702 7.47179 24.1812 7.86259 24.0667 8.24078C23.965 8.60637 23.8379 8.93413 23.6853 9.22408C23.1005 10.3713 22.1279 10.9448 20.7676 10.9448C18.8351 10.9448 16.6357 10.6864 14.1692 10.1696L12.2241 19.1516C13.0123 18.9121 13.7116 18.7356 14.3218 18.6221C14.9321 18.5087 15.555 18.4519 16.1907 18.4519C18.3774 18.4519 20.0493 19.1264 21.2062 20.4753C21.7402 21.1182 22.1406 21.8746 22.4076 22.7444C22.6746 23.6142 22.8081 24.5723 22.8081 25.6187C22.8081 26.2868 22.7382 27.0054 22.5983 27.7743C22.4585 28.5307 22.2487 29.2808 21.969 30.0246C21.6766 30.8188 21.3015 31.5752 20.8439 32.2937C20.3862 32.9997 19.8586 33.6237 19.261 34.1658C17.9007 35.3886 16.2924 36 14.4362 36Z" fill="url(#paint0_linear_1202_169)"/>
<path d="M32.3509 35.4894C30.4184 35.4894 28.9246 35.023 27.8694 34.0901C26.687 33.0564 26.0958 31.4869 26.0958 29.3817C26.0958 28.5875 26.1785 27.7113 26.3437 26.7532C26.509 25.7825 26.7633 24.8055 27.1066 23.8222C27.8948 21.4775 29.0199 19.6054 30.482 18.2061C32.2492 16.4916 34.3533 15.6344 36.7943 15.6344C40.1379 15.6344 41.8098 17.6956 41.8098 21.8178V21.8557C41.8861 21.8809 41.9496 21.8935 42.0005 21.8935H42.2293C43.0938 21.8935 44.1173 21.654 45.2996 21.1749C46.3422 20.7463 47.3275 20.2105 48.2555 19.5676L48.5988 20.6265C47.836 21.4207 46.8507 22.0952 45.6429 22.6499C44.4478 23.2045 43.1256 23.6016 41.6763 23.8412C41.5237 25.5934 41.1805 27.1945 40.6465 28.6442C40.1125 30.0813 39.426 31.3167 38.5869 32.3505C37.7605 33.359 36.8133 34.1343 35.7454 34.6763C34.6775 35.2184 33.546 35.4894 32.3509 35.4894ZM33.9147 32.0101C34.3723 32.0101 34.8364 31.8084 35.3068 31.405C35.7899 30.989 36.2412 30.4154 36.6608 29.6842C37.0803 28.953 37.4427 28.0958 37.7478 27.1125C38.0529 26.1292 38.2818 25.0766 38.4343 23.9546C38.0529 23.8538 37.7796 23.6647 37.6143 23.3873C37.4617 23.11 37.3855 22.757 37.3855 22.3284C37.3855 21.7989 37.4935 21.3577 37.7097 21.0047C37.9258 20.6517 38.2246 20.3933 38.606 20.2294C38.5551 19.41 38.4216 18.8238 38.2055 18.4708C38.0911 18.2944 37.9449 18.1683 37.7669 18.0927C37.6016 18.017 37.3855 17.9792 37.1185 17.9792C36.2412 17.9792 35.3831 18.6347 34.544 19.9458C33.7685 21.1308 33.1328 22.5931 32.6369 24.3328C32.1538 26.0347 31.9123 27.5474 31.9123 28.8711C31.9123 29.514 31.9441 30.0372 32.0076 30.4406C32.0839 30.844 32.2047 31.1592 32.37 31.3861C32.5225 31.613 32.7196 31.7769 32.9611 31.8777C33.2027 31.966 33.5205 32.0101 33.9147 32.0101Z" fill="url(#paint1_linear_1202_169)"/>
<path d="M50.9902 35.5651C49.0959 35.5651 47.6275 35.2184 46.585 34.5251C45.4916 33.8065 44.9449 32.6971 44.9449 31.197C44.9449 29.8985 45.3772 28.7576 46.2417 27.7743C46.585 27.3709 46.9855 26.9928 47.4431 26.6398C47.9135 26.2868 48.4602 25.9212 49.0832 25.543C49.8714 25.064 50.4563 24.6984 50.8377 24.4463C51.2318 24.1815 51.6005 23.8916 51.9437 23.5764C52.3506 23.1856 52.6621 22.7822 52.8782 22.3662C53.107 21.9502 53.2215 21.4838 53.2215 20.9669C53.2215 20.387 53.0689 19.9395 52.7638 19.6243C52.4714 19.3092 52.0264 19.1516 51.4288 19.1516C50.577 19.1516 49.8079 19.4731 49.1213 20.116C48.4475 20.7589 47.8118 21.78 47.2143 23.1793H45.3263C46.1781 20.7715 47.2207 18.9625 48.4539 17.7523C49.8778 16.3404 51.6768 15.6344 53.8508 15.6344C54.5627 15.6344 55.2302 15.7227 55.8532 15.8991C56.4888 16.063 57.0482 16.3152 57.5313 16.6555C58.0399 17.0211 58.4277 17.4876 58.6946 18.0548C58.9743 18.6095 59.1142 19.2587 59.1142 20.0025C59.1142 20.9984 58.9235 21.8746 58.5421 22.6309C58.1734 23.3747 57.6521 24.0555 56.9783 24.6732C56.3808 25.2153 55.7197 25.7069 54.995 26.1481C54.1178 26.6776 53.4058 27.1314 52.8591 27.5096C52.3124 27.8752 51.8547 28.266 51.4861 28.682C51.0792 29.1484 50.8758 29.6779 50.8758 30.2704C50.8758 30.989 51.1174 31.5121 51.6005 31.8399C52.0836 32.1551 52.7701 32.3126 53.6601 32.3126C54.8551 32.3126 55.9549 32.0227 56.9592 31.4428C58.0526 30.8377 59.2032 29.8229 60.411 28.3984H61.7459C60.3474 30.6171 58.8663 32.3 57.3025 33.4472C55.4082 34.8591 53.3041 35.5651 50.9902 35.5651Z" fill="url(#paint2_linear_1202_169)"/>
<path d="M66.235 35.5651C64.9891 35.5651 64.0038 35.1995 63.2791 34.4683C62.4655 33.6615 62.0586 32.4828 62.0586 30.9322C62.0586 30.2011 62.1604 29.3564 62.3638 28.3984L65.0145 15.9748H70.6403L67.8369 29.1358C67.7607 29.5266 67.7225 29.8922 67.7225 30.2326C67.7225 31.2915 68.1103 31.821 68.8858 31.821C69.5978 31.821 70.2398 31.4995 70.8119 30.8566C71.2696 30.3145 71.6701 29.4951 72.0134 28.3984L74.6641 15.9748H80.2899L77.4865 29.1358C77.3721 29.514 77.3149 29.93 77.3149 30.3839C77.3149 30.9133 77.442 31.2852 77.6963 31.4995C77.9506 31.7138 78.3574 31.821 78.9168 31.821C79.6415 31.821 80.2899 31.4995 80.862 30.8566C81.3705 30.2893 81.7774 29.4699 82.0825 28.3984H83.7225C83.0233 30.365 82.1778 31.9218 81.1862 33.069C80.3471 34.0145 79.3999 34.6952 78.3447 35.1113C77.5692 35.4138 76.7491 35.5651 75.8846 35.5651C74.7658 35.5651 73.8759 35.2562 73.2148 34.6385C72.5537 34.0208 72.1532 33.1068 72.0134 31.8966C71.1234 33.3085 70.119 34.317 69.0002 34.9222C68.1993 35.3508 67.2776 35.5651 66.235 35.5651Z" fill="url(#paint3_linear_1202_169)"/>
<path d="M98.2045 35.5651C96.7043 35.5651 95.5474 35.1491 94.7337 34.317C94.365 33.9515 94.0853 33.5228 93.8946 33.0312C93.7039 32.5269 93.6086 32.0038 93.6086 31.4617C93.6086 30.9827 93.6785 30.3334 93.8184 29.514C93.9709 28.6946 94.1998 27.5348 94.5049 26.0347H90.1759L88.1735 35.3382H82.5478L86.6861 15.9748H92.3118L90.6336 23.7277H95.0007L96.7743 15.9748H102L99.9399 25.5808L99.2534 28.5685C99.0754 29.3501 98.9864 29.8922 98.9864 30.1948C98.9864 31.2789 99.5077 31.821 100.55 31.821C100.944 31.821 101.288 31.758 101.58 31.6319C101.872 31.4932 102.146 31.2789 102.4 30.989C102.629 30.7242 102.845 30.3965 103.048 30.0057C103.265 29.6149 103.525 29.0791 103.83 28.3984H105.47C103.83 33.1762 101.408 35.5651 98.2045 35.5651Z" fill="url(#paint4_linear_1202_169)"/>
<path d="M108.682 35.5651C107.296 35.5651 106.203 35.1239 105.402 34.2414C105.046 33.8506 104.772 33.3905 104.582 32.861C104.391 32.3315 104.296 31.7769 104.296 31.197C104.296 30.2767 104.512 29.5329 104.944 28.9656C105.376 28.3858 105.967 28.0958 106.718 28.0958C107.328 28.0958 107.817 28.2849 108.186 28.6631C108.567 29.0287 108.758 29.514 108.758 30.1191C108.758 30.6738 108.625 31.115 108.358 31.4428C108.103 31.758 107.785 31.9155 107.404 31.9155C107.315 31.9155 107.245 31.9092 107.194 31.8966C107.22 32.237 107.334 32.508 107.538 32.7097C107.792 32.9871 108.186 33.1257 108.72 33.1257C109.165 33.1257 109.553 32.9934 109.883 32.7286C110.214 32.4513 110.506 32.0479 110.76 31.5184C110.989 31.0268 111.205 30.4343 111.409 29.7409C111.612 29.035 111.822 28.1777 112.038 27.1692C110.894 26.9297 110.004 26.4507 109.368 25.7321C108.669 24.9379 108.319 23.9168 108.319 22.6688C108.319 20.677 109.063 19.1075 110.551 17.9603C112.28 16.6366 114.962 15.9748 118.598 15.9748H124.529L122.451 25.5808L121.764 28.5685C121.599 29.2997 121.516 29.8418 121.516 30.1948C121.516 31.2789 122.037 31.821 123.08 31.821C123.474 31.821 123.817 31.758 124.11 31.6319C124.402 31.4932 124.675 31.2789 124.93 30.989C125.159 30.7242 125.375 30.3965 125.578 30.0057C125.794 29.6149 126.055 29.0791 126.36 28.3984H128C126.36 33.1762 123.938 35.5651 120.734 35.5651C119.234 35.5651 118.077 35.1491 117.263 34.317C116.895 33.9515 116.615 33.5228 116.424 33.0312C116.234 32.5269 116.138 32.0038 116.138 31.4617C116.138 31.0961 116.176 30.6549 116.253 30.138C116.329 29.6464 116.526 28.6442 116.844 27.1314C116.145 27.2827 115.414 27.3583 114.651 27.3583C114.295 28.8459 113.958 30.0687 113.64 31.0268C113.335 31.9849 112.979 32.7854 112.572 33.4283C112.127 34.1469 111.587 34.6826 110.951 35.0356C110.328 35.3886 109.572 35.5651 108.682 35.5651ZM116.787 25.543C116.876 25.543 117.009 25.5178 117.187 25.4674L118.827 18.0737H117.893C116.38 18.0737 115.223 18.4898 114.422 19.3218C114.028 19.7126 113.729 20.1853 113.526 20.74C113.335 21.2947 113.24 21.8998 113.24 22.5553C113.24 23.6395 113.513 24.4211 114.06 24.9001C114.53 25.3287 115.197 25.543 116.062 25.543H116.787Z" fill="url(#paint5_linear_1202_169)"/>
<path d="M32.0658 10.3842C31.5496 10.3842 31.1069 10.3224 30.7375 10.1989C30.3682 10.0797 30.0612 9.89001 29.8164 9.62969C29.5673 9.36495 29.3804 9.0208 29.2558 8.59723C29.1356 8.16924 29.0756 7.65301 29.0756 7.04853C29.0756 6.36464 29.1557 5.65206 29.3159 4.91081C29.5027 4.05043 29.7697 3.28049 30.1168 2.60101C30.5217 1.81122 31.0134 1.19571 31.5919 0.754491C32.2505 0.251497 33.0025 0 33.8479 0C34.5287 0 35.0694 0.141191 35.4698 0.423574C35.9104 0.73243 36.1306 1.19571 36.1306 1.81343C36.1306 2.2017 36.0594 2.49953 35.917 2.7069C35.748 2.94516 35.4988 3.06429 35.1695 3.06429C35.0315 3.06429 34.8958 3.04003 34.7623 2.99149C34.6333 2.94296 34.5109 2.8503 34.3952 2.71352C34.4753 2.67381 34.5532 2.61204 34.6288 2.52821C34.7045 2.43996 34.7712 2.33848 34.8291 2.22376C34.9581 1.96785 35.0226 1.71415 35.0226 1.46265C35.0226 1.21998 34.9604 1.02805 34.8358 0.886858C34.6889 0.719193 34.4731 0.635361 34.1883 0.635361C33.9436 0.635361 33.7011 0.725812 33.4608 0.906713C33.225 1.0832 32.998 1.3347 32.78 1.6612C32.5708 1.97447 32.3773 2.34069 32.1993 2.75985C32.0213 3.17901 31.87 3.62465 31.7454 4.09675C31.6208 4.57327 31.5229 5.05862 31.4517 5.55279C31.3805 6.04696 31.3449 6.51907 31.3449 6.96911C31.3449 7.30444 31.3694 7.59786 31.4184 7.84935C31.4718 8.10085 31.5563 8.31484 31.672 8.49133C31.9256 8.88402 32.3639 9.08037 32.9869 9.08037C33.5209 9.08037 34.017 8.96344 34.4753 8.72959C34.9337 8.49133 35.3252 8.156 35.6501 7.72361L35.9638 7.86259C35.7902 8.29499 35.5499 8.67444 35.2429 9.00095C34.9403 9.32304 34.5977 9.58998 34.215 9.80176C33.8635 9.9959 33.5008 10.1415 33.1271 10.2386C32.7533 10.3356 32.3995 10.3842 32.0658 10.3842Z" fill="url(#paint6_linear_1202_169)"/>
<path d="M37.9354 10.2452C37.4148 10.2452 36.9943 10.0841 36.6739 9.76205C36.3002 9.3826 36.1133 8.81784 36.1133 8.06776C36.1133 7.75008 36.1467 7.41475 36.2134 7.06177C36.2757 6.70879 36.3691 6.36023 36.4937 6.01607C36.7785 5.23952 37.1679 4.61298 37.6618 4.13646C38.2314 3.59376 38.8877 3.32241 39.6308 3.32241C40.0001 3.32241 40.276 3.38639 40.4585 3.51434C40.6453 3.63788 40.7388 3.80334 40.7388 4.01072V4.10999L40.8856 3.38859H42.8546L41.8735 7.99496C41.8334 8.12732 41.8134 8.27293 41.8134 8.43177C41.8134 8.82004 42.0003 9.01418 42.3741 9.01418C42.6233 9.01418 42.8502 8.88843 43.0549 8.63694C43.2284 8.42515 43.3708 8.12512 43.4821 7.73684H44.0561C43.8113 8.42515 43.5154 8.97006 43.1683 9.37157C42.8747 9.70249 42.5432 9.94075 42.1738 10.0864C41.9024 10.1922 41.6154 10.2452 41.3128 10.2452C40.9257 10.2452 40.6164 10.1415 40.385 9.93413C40.1581 9.72234 40.0202 9.41128 39.9712 9.00095C39.7131 9.36275 39.4417 9.64513 39.1569 9.84809C38.792 10.1128 38.3849 10.2452 37.9354 10.2452ZM38.8232 8.93476C38.9255 8.93476 39.0323 8.90829 39.1436 8.85534C39.2592 8.8024 39.3705 8.72739 39.4773 8.63032C39.7176 8.40088 39.8778 8.10306 39.9579 7.73684L40.612 4.67917C40.612 4.63505 40.6008 4.58431 40.5786 4.52695C40.5608 4.46517 40.5341 4.40782 40.4985 4.35487C40.3917 4.22691 40.2426 4.16294 40.0513 4.16294C39.8689 4.16294 39.6909 4.2225 39.5173 4.34163C39.3482 4.46076 39.1881 4.62622 39.0368 4.83801C38.7698 5.22187 38.5495 5.72266 38.376 6.34037C38.2959 6.61393 38.2358 6.88528 38.1958 7.15443C38.1557 7.41916 38.1357 7.65963 38.1357 7.87583C38.1357 8.32587 38.2202 8.63032 38.3893 8.78916C38.4472 8.85093 38.5117 8.89064 38.5829 8.90829C38.6541 8.92594 38.7342 8.93476 38.8232 8.93476Z" fill="url(#paint7_linear_1202_169)"/>
<path d="M45.1534 10.2452C44.655 10.2452 44.2723 10.0841 44.0053 9.76205C43.8896 9.62528 43.8029 9.46644 43.745 9.28553C43.6827 9.10022 43.6516 8.91049 43.6516 8.71636C43.6516 8.39426 43.7272 8.13394 43.8785 7.93539C44.0298 7.73243 44.2367 7.63095 44.4993 7.63095C44.7129 7.63095 44.8842 7.69713 45.0132 7.8295C45.1467 7.95745 45.2134 8.12732 45.2134 8.33911C45.2134 8.53325 45.1667 8.68768 45.0733 8.8024C44.9843 8.9127 44.873 8.96785 44.7395 8.96785C44.7084 8.96785 44.6839 8.96565 44.6661 8.96124C44.675 9.08478 44.7129 9.17964 44.7796 9.24582C44.8686 9.34289 45.0088 9.39143 45.2001 9.39143C45.4137 9.39143 45.5895 9.32304 45.7274 9.18626C45.8653 9.04948 45.9833 8.85093 46.0811 8.59061C46.1746 8.32587 46.2525 8.04349 46.3148 7.74346C46.3593 7.49196 46.4127 7.23385 46.4749 6.96911L46.5217 6.75071C46.6641 6.05799 46.822 5.49102 46.9956 5.0498C47.1736 4.60857 47.3738 4.26221 47.5963 4.01072C47.7965 3.77687 48.0212 3.61582 48.2704 3.52758C48.5241 3.43492 48.8155 3.38859 49.1448 3.38859H51.1605L50.433 6.75071L50.1927 7.79641C50.1349 8.05232 50.1059 8.24204 50.1059 8.36558C50.1059 8.74504 50.2884 8.93476 50.6533 8.93476C50.7867 8.93476 50.9047 8.9127 51.007 8.86858C51.1094 8.82004 51.205 8.74504 51.294 8.64355C51.3741 8.5509 51.452 8.43397 51.5276 8.29278C51.6077 8.15159 51.6989 7.96628 51.8013 7.73684H52.3753C51.8013 9.40908 50.9536 10.2452 49.8323 10.2452C49.3117 10.2452 48.9045 10.0996 48.6108 9.80838C48.4818 9.68043 48.3839 9.53041 48.3171 9.35834C48.2504 9.18185 48.217 8.99874 48.217 8.80901C48.217 8.42956 48.3171 7.81626 48.5174 6.96911L49.1181 4.28207C48.8778 4.28207 48.6731 4.3306 48.504 4.42767C48.3349 4.52474 48.1859 4.67696 48.0568 4.88434C47.9322 5.08289 47.8188 5.341 47.7164 5.65868C47.6141 5.97636 47.5073 6.38449 47.396 6.88308L47.3693 7.01544C47.2314 7.65522 47.1135 8.14718 47.0156 8.49133C46.9221 8.83549 46.8087 9.1289 46.6752 9.37157C46.5105 9.66719 46.3059 9.8878 46.0611 10.0334C45.8208 10.1746 45.5183 10.2452 45.1534 10.2452Z" fill="url(#paint8_linear_1202_169)"/>
<path d="M54.4872 10.2187C53.8108 10.2187 53.2879 10.0555 52.9186 9.72896C52.5048 9.36716 52.2979 8.81784 52.2979 8.081C52.2979 7.80303 52.3268 7.49638 52.3846 7.16105C52.4425 6.8213 52.5315 6.47936 52.6516 6.1352C52.9275 5.31453 53.3213 4.65931 53.833 4.16956C54.4516 3.56949 55.188 3.26946 56.0423 3.26946C57.2126 3.26946 57.7978 3.99086 57.7978 5.43366V5.4469C57.8245 5.45572 57.8467 5.46013 57.8645 5.46013H57.9446C58.2472 5.46013 58.6054 5.3763 59.0192 5.20864C59.3841 5.05862 59.7289 4.8711 60.0538 4.64608L60.1739 5.0167C59.9069 5.29467 59.5621 5.53073 59.1394 5.72487C58.7211 5.919 58.2583 6.05799 57.751 6.14182C57.6976 6.75512 57.5775 7.31547 57.3906 7.82288C57.2037 8.32587 56.9634 8.75827 56.6697 9.12008C56.3805 9.47305 56.049 9.74441 55.6752 9.93413C55.3015 10.1239 54.9054 10.2187 54.4872 10.2187ZM55.0345 9.00095C55.1947 9.00095 55.3571 8.93035 55.5217 8.78916C55.6908 8.64355 55.8488 8.4428 55.9956 8.18689C56.1425 7.93098 56.2693 7.63095 56.3761 7.28679C56.4829 6.94264 56.563 6.57422 56.6164 6.18153C56.4829 6.14623 56.3872 6.08005 56.3293 5.98298C56.2759 5.88591 56.2492 5.76237 56.2492 5.61235C56.2492 5.42704 56.2871 5.27261 56.3627 5.14907C56.4384 5.02553 56.5429 4.93508 56.6764 4.87772C56.6586 4.59092 56.6119 4.38575 56.5363 4.26221C56.4962 4.20044 56.445 4.15632 56.3827 4.12985C56.3249 4.10337 56.2492 4.09014 56.1558 4.09014C55.8488 4.09014 55.5484 4.31957 55.2547 4.77844C54.9833 5.19319 54.7608 5.70501 54.5873 6.3139C54.4182 6.90955 54.3336 7.43902 54.3336 7.9023C54.3336 8.12732 54.3448 8.31043 54.367 8.45162C54.3937 8.59281 54.436 8.70312 54.4938 8.78254C54.5472 8.86196 54.6162 8.91932 54.7007 8.95462C54.7853 8.9855 54.8965 9.00095 55.0345 9.00095Z" fill="url(#paint9_linear_1202_169)"/>
<path d="M64.1413 10.2452C63.6162 10.2452 63.2113 10.0996 62.9265 9.80838C62.7975 9.68043 62.6996 9.53041 62.6329 9.35834C62.5661 9.18185 62.5327 8.99874 62.5327 8.80901C62.5327 8.64135 62.5572 8.41412 62.6062 8.12732C62.6596 7.84053 62.7396 7.4346 62.8464 6.90955H61.3313L60.6305 10.1658H58.6615L60.1098 3.38859H62.0789L61.4915 6.10211H63.02L63.6407 3.38859H65.4696L64.7487 6.75071L64.5084 7.79641C64.4461 8.06997 64.415 8.25969 64.415 8.36558C64.415 8.74504 64.5974 8.93476 64.9623 8.93476C65.1002 8.93476 65.2204 8.9127 65.3227 8.86858C65.4251 8.82004 65.5207 8.74504 65.6097 8.64355C65.6898 8.5509 65.7655 8.43618 65.8367 8.2994C65.9123 8.16262 66.0035 7.9751 66.1103 7.73684H66.6843C66.1103 9.40908 65.2627 10.2452 64.1413 10.2452Z" fill="url(#paint10_linear_1202_169)"/>
<path d="M75.3733 10.2452C74.8305 10.2452 74.4189 10.1128 74.1385 9.84809C73.8627 9.58336 73.7247 9.21494 73.7247 8.74283C73.7247 8.5884 73.7514 8.35676 73.8048 8.0479C73.8137 7.97731 73.8226 7.92877 73.8315 7.9023C73.8404 7.81406 73.8493 7.75449 73.8582 7.72361C73.876 7.63536 73.8849 7.54491 73.8849 7.45225C73.8849 7.01985 73.7114 6.80366 73.3643 6.80366C73.2486 6.80366 73.124 6.84337 72.9905 6.92279L72.7702 7.08163L72.4899 7.30665L71.8892 10.1658H69.9202L71.3819 3.38859H73.3509L72.7636 6.07564C73.0573 5.78443 73.342 5.49102 73.6179 5.1954L73.718 5.08289C74.2476 4.51812 74.608 4.14088 74.7993 3.95115C75.1153 3.63788 75.4134 3.43492 75.6937 3.34226C75.8495 3.29373 76.0119 3.26946 76.181 3.26946C76.488 3.26946 76.7216 3.35329 76.8818 3.52096C77.042 3.68421 77.1221 3.8982 77.1221 4.16294C77.1221 4.44091 77.0465 4.65711 76.8952 4.81153C76.7483 4.96596 76.537 5.04318 76.2611 5.04318C76.0074 5.04318 75.8139 4.96596 75.6804 4.81153C75.5602 4.67917 75.5046 4.52474 75.5135 4.34825C75.3711 4.43208 75.2354 4.53136 75.1064 4.64608C74.9818 4.75638 74.8438 4.88875 74.6925 5.04318L74.559 5.18878C74.4967 5.25055 74.4122 5.34321 74.3054 5.46675C74.1942 5.59471 74.0584 5.7381 73.8983 5.89694C74.054 5.86165 74.2453 5.844 74.4723 5.844C74.9439 5.844 75.2844 5.9521 75.4935 6.16829C75.6804 6.35802 75.7738 6.66908 75.7738 7.10148C75.7738 7.24708 75.7471 7.46108 75.6937 7.74346C75.6715 7.85377 75.6515 7.97069 75.6337 8.09423C75.6159 8.21336 75.607 8.32587 75.607 8.43177C75.607 8.7671 75.7894 8.93476 76.1543 8.93476C76.2922 8.93476 76.4101 8.9127 76.508 8.86858C76.6104 8.82004 76.7038 8.74504 76.7884 8.64355C76.8685 8.5509 76.9463 8.43397 77.022 8.29278C77.0976 8.15159 77.1866 7.96628 77.289 7.73684H77.863C77.289 9.40908 76.4591 10.2452 75.3733 10.2452Z" fill="url(#paint11_linear_1202_169)"/>
<path d="M79.0137 2.8856H80.9827L80.7624 3.90482C81.2252 3.51655 81.757 3.32241 82.3577 3.32241C82.8694 3.32241 83.2654 3.47684 83.5457 3.78569C83.8661 4.14749 84.0263 4.70564 84.0263 5.46013C84.0263 6.18815 83.9329 6.87205 83.746 7.51182C83.5102 8.32808 83.1675 8.96124 82.7181 9.41128C82.1663 9.96722 81.4811 10.2452 80.6623 10.2452C80.3464 10.2452 80.0861 10.1967 79.8814 10.0996C79.7256 10.029 79.5988 9.91648 79.5009 9.76205L78.7934 13.0646L76.731 13.5544L79.0137 2.8856ZM80.2418 9.06713C80.6823 9.06713 81.0606 8.84431 81.3765 8.39868C81.6257 8.05011 81.8259 7.56035 81.9772 6.9294C82.0974 6.422 82.1574 5.919 82.1574 5.42042C82.1574 4.97479 82.0751 4.65711 81.9105 4.46738C81.8037 4.35266 81.6568 4.2953 81.4699 4.2953C81.3053 4.2953 81.1384 4.35266 80.9693 4.46738C80.8003 4.5821 80.6534 4.74756 80.5288 4.96376L79.7212 8.75607C79.7523 8.84431 79.8102 8.91932 79.8947 8.98109C79.9837 9.03845 80.0994 9.06713 80.2418 9.06713Z" fill="url(#paint12_linear_1202_169)"/>
<path d="M86.9057 10.2452C86.3851 10.2452 85.9646 10.0841 85.6442 9.76205C85.2705 9.3826 85.0836 8.81784 85.0836 8.06776C85.0836 7.75008 85.1169 7.41475 85.1837 7.06177C85.246 6.70879 85.3394 6.36023 85.464 6.01607C85.7488 5.23952 86.1382 4.61298 86.6321 4.13646C87.2017 3.59376 87.858 3.32241 88.6011 3.32241C88.9704 3.32241 89.2463 3.38639 89.4287 3.51434C89.6156 3.63788 89.7091 3.80334 89.7091 4.01072V4.10999L89.8559 3.38859H91.8249L90.8438 7.99496C90.8037 8.12732 90.7837 8.27293 90.7837 8.43177C90.7837 8.82004 90.9706 9.01418 91.3444 9.01418C91.5935 9.01418 91.8205 8.88843 92.0252 8.63694C92.1987 8.42515 92.3411 8.12512 92.4523 7.73684H93.0264C92.7816 8.42515 92.4857 8.97006 92.1386 9.37157C91.845 9.70249 91.5135 9.94075 91.1441 10.0864C90.8727 10.1922 90.5857 10.2452 90.2831 10.2452C89.896 10.2452 89.5867 10.1415 89.3553 9.93413C89.1284 9.72234 88.9904 9.41128 88.9415 9.00095C88.6834 9.36275 88.412 9.64513 88.1272 9.84809C87.7623 10.1128 87.3552 10.2452 86.9057 10.2452ZM87.7935 8.93476C87.8958 8.93476 88.0026 8.90829 88.1138 8.85534C88.2295 8.8024 88.3408 8.72739 88.4476 8.63032C88.6879 8.40088 88.8481 8.10306 88.9282 7.73684L89.5823 4.67917C89.5823 4.63505 89.5711 4.58431 89.5489 4.52695C89.5311 4.46517 89.5044 4.40782 89.4688 4.35487C89.362 4.22691 89.2129 4.16294 89.0216 4.16294C88.8392 4.16294 88.6612 4.2225 88.4876 4.34163C88.3185 4.46076 88.1583 4.62622 88.0071 4.83801C87.7401 5.22187 87.5198 5.72266 87.3463 6.34037C87.2662 6.61393 87.2061 6.88528 87.1661 7.15443C87.126 7.41916 87.106 7.65963 87.106 7.87583C87.106 8.32587 87.1905 8.63032 87.3596 8.78916C87.4175 8.85093 87.482 8.89064 87.5532 8.90829C87.6244 8.92594 87.7045 8.93476 87.7935 8.93476Z" fill="url(#paint13_linear_1202_169)"/>
<path d="M95.0982 10.2452C94.4263 10.2452 93.9079 10.0775 93.543 9.7422C93.1559 9.38481 92.9623 8.83549 92.9623 8.09423C92.9623 7.81626 92.9912 7.50741 93.0491 7.16766C93.1025 6.82351 93.187 6.48156 93.3027 6.14182C93.5741 5.31673 93.959 4.65931 94.4574 4.16956C95.0715 3.56949 95.799 3.26946 96.64 3.26946C97.1873 3.26946 97.5922 3.39962 97.8548 3.65994C98.0595 3.86732 98.1618 4.15191 98.1618 4.51371C98.1618 4.83139 98.0906 5.07847 97.9482 5.25496C97.8147 5.41822 97.6434 5.49984 97.4343 5.49984C97.283 5.49984 97.1228 5.4469 96.9537 5.341C97.065 5.05421 97.1206 4.78727 97.1206 4.54018C97.1206 4.36811 97.0872 4.23353 97.0205 4.13646C96.9582 4.03498 96.8647 3.98424 96.7401 3.98424C96.4731 3.98424 96.195 4.21809 95.9058 4.68579C95.6433 5.10054 95.4252 5.6278 95.2517 6.26757C95.0737 6.89411 94.9847 7.46108 94.9847 7.96848C94.9847 8.40971 95.0692 8.71415 95.2383 8.88182C95.3852 9.03183 95.6299 9.10684 95.9725 9.10684C96.4665 9.10684 96.9181 8.97447 97.3275 8.70974C97.501 8.59943 97.6679 8.46927 97.8281 8.31926C97.9883 8.16483 98.1752 7.97069 98.3888 7.73684H98.856C98.4244 8.46045 97.9282 9.03624 97.3675 9.46423C96.6778 9.98487 95.9214 10.2452 95.0982 10.2452Z" fill="url(#paint14_linear_1202_169)"/>
<path d="M101.068 10.2187C100.392 10.2187 99.8687 10.0555 99.4994 9.72896C99.0856 9.36716 98.8787 8.81784 98.8787 8.081C98.8787 7.80303 98.9076 7.49638 98.9654 7.16105C99.0233 6.8213 99.1123 6.47936 99.2324 6.1352C99.5083 5.31453 99.9021 4.65931 100.414 4.16956C101.032 3.56949 101.769 3.26946 102.623 3.26946C103.793 3.26946 104.379 3.99086 104.379 5.43366V5.4469C104.405 5.45572 104.427 5.46013 104.445 5.46013H104.525C104.828 5.46013 105.186 5.3763 105.6 5.20864C105.965 5.05862 106.31 4.8711 106.635 4.64608L106.755 5.0167C106.488 5.29467 106.143 5.53073 105.72 5.72487C105.302 5.919 104.839 6.05799 104.332 6.14182C104.278 6.75512 104.158 7.31547 103.971 7.82288C103.785 8.32587 103.544 8.75827 103.251 9.12008C102.961 9.47305 102.63 9.74441 102.256 9.93413C101.882 10.1239 101.486 10.2187 101.068 10.2187ZM101.615 9.00095C101.775 9.00095 101.938 8.93035 102.103 8.78916C102.272 8.64355 102.43 8.4428 102.576 8.18689C102.723 7.93098 102.85 7.63095 102.957 7.28679C103.064 6.94264 103.144 6.57422 103.197 6.18153C103.064 6.14623 102.968 6.08005 102.91 5.98298C102.857 5.88591 102.83 5.76237 102.83 5.61235C102.83 5.42704 102.868 5.27261 102.944 5.14907C103.019 5.02553 103.124 4.93508 103.257 4.87772C103.239 4.59092 103.193 4.38575 103.117 4.26221C103.077 4.20044 103.026 4.15632 102.964 4.12985C102.906 4.10337 102.83 4.09014 102.737 4.09014C102.43 4.09014 102.129 4.31957 101.836 4.77844C101.564 5.19319 101.342 5.70501 101.168 6.3139C100.999 6.90955 100.914 7.43902 100.914 7.9023C100.914 8.12732 100.926 8.31043 100.948 8.45162C100.974 8.59281 101.017 8.70312 101.075 8.78254C101.128 8.86196 101.197 8.91932 101.282 8.95462C101.366 8.9855 101.477 9.00095 101.615 9.00095Z" fill="url(#paint15_linear_1202_169)"/>
<path d="M114.073 10.2452C113.508 10.2452 113.089 10.0864 112.818 9.76867C112.582 9.49511 112.464 9.14434 112.464 8.71636C112.464 8.51339 112.489 8.27734 112.538 8.00819C112.591 7.73905 112.669 7.39269 112.771 6.96911C112.874 6.53672 112.949 6.19256 112.998 5.93665C113.052 5.67633 113.078 5.45131 113.078 5.26158C113.078 4.7983 112.914 4.56666 112.584 4.56666C112.353 4.56666 112.139 4.68799 111.944 4.93066C111.779 5.13804 111.637 5.43366 111.516 5.81752L110.589 10.1658H108.62L109.621 5.48661C109.647 5.38071 109.661 5.2682 109.661 5.14907C109.661 4.96817 109.632 4.82918 109.574 4.73211C109.498 4.61298 109.389 4.55342 109.247 4.55342C108.989 4.55342 108.764 4.67696 108.573 4.92405C108.404 5.13583 108.259 5.43366 108.139 5.81752L107.211 10.1658H105.242L106.691 3.38859H108.66L108.513 4.09014C108.78 3.79452 109.071 3.58494 109.387 3.46139C109.636 3.36874 109.901 3.32241 110.181 3.32241C110.564 3.32241 110.869 3.41065 111.096 3.58714C111.35 3.78569 111.512 4.08572 111.583 4.48724C111.877 4.03719 112.215 3.71951 112.598 3.53419C112.869 3.40183 113.165 3.33564 113.485 3.33564C113.944 3.33564 114.306 3.45477 114.573 3.69303C114.858 3.95336 115.001 4.34384 115.001 4.86448C115.001 5.1601 114.945 5.56823 114.834 6.08887C114.789 6.30507 114.736 6.52348 114.673 6.74409C114.562 7.16766 114.471 7.55815 114.4 7.91554C114.364 8.10085 114.346 8.25087 114.346 8.36558C114.346 8.54649 114.386 8.68768 114.467 8.78916C114.551 8.88623 114.693 8.93476 114.894 8.93476C115.165 8.93476 115.394 8.82446 115.581 8.60384C115.724 8.43618 115.877 8.14718 116.042 7.73684H116.616C116.278 8.72959 115.85 9.42452 115.334 9.82162C114.969 10.104 114.549 10.2452 114.073 10.2452Z" fill="url(#paint16_linear_1202_169)"/>
<path d="M118.601 10.2452C117.978 10.2452 117.495 10.093 117.152 9.78853C116.814 9.48408 116.645 9.0583 116.645 8.51119C116.645 8.21557 116.676 7.95745 116.739 7.73684L117.64 3.38859H119.529L118.514 8.16042C118.487 8.22219 118.474 8.2994 118.474 8.39206C118.474 8.4803 118.474 8.52884 118.474 8.53766C118.474 8.90829 118.679 9.0936 119.088 9.0936C119.271 9.0936 119.451 9.03624 119.629 8.92153C119.807 8.8024 119.965 8.64135 120.103 8.43839C120.241 8.23101 120.35 7.99055 120.43 7.71699C120.51 7.43902 120.55 7.14781 120.55 6.84337C120.55 6.62717 120.483 6.45509 120.35 6.32714C120.234 6.41097 120.1 6.45288 119.949 6.45288C119.878 6.45288 119.807 6.44185 119.735 6.41979C119.664 6.39332 119.602 6.35802 119.549 6.3139C119.415 6.20359 119.348 6.05578 119.348 5.87047C119.348 5.67633 119.431 5.5197 119.595 5.40057C119.738 5.29909 119.911 5.24835 120.116 5.24835C120.325 5.24835 120.512 5.27482 120.677 5.32777C120.984 5.19099 121.273 5.0498 121.544 4.90419C121.816 4.75859 122.118 4.58651 122.452 4.38796C122.497 4.36149 122.548 4.3306 122.606 4.2953C122.668 4.26001 122.735 4.2203 122.806 4.17617C123.313 3.86732 123.774 3.60479 124.187 3.38859H125.035L124.314 6.75071L124.074 7.79641C124.012 8.06997 123.981 8.25969 123.981 8.36558C123.981 8.74504 124.163 8.93476 124.528 8.93476C124.666 8.93476 124.786 8.9127 124.888 8.86858C124.991 8.82004 125.086 8.74504 125.175 8.64355C125.255 8.5509 125.331 8.43618 125.402 8.2994C125.478 8.16262 125.569 7.9751 125.676 7.73684H126.25C125.676 9.40908 124.835 10.2452 123.727 10.2452C123.202 10.2452 122.792 10.0952 122.499 9.79515C122.37 9.66719 122.272 9.51497 122.205 9.33848C122.143 9.16199 122.112 8.97227 122.112 8.7693C122.112 8.72077 122.114 8.67885 122.118 8.64355C122.132 8.52001 122.143 8.44059 122.152 8.40529C122.183 8.18027 122.25 7.81847 122.352 7.31989C122.445 6.84778 122.617 6.05799 122.866 4.95052C122.399 5.24173 121.887 5.53514 121.331 5.83076C121.549 6.16609 121.658 6.61614 121.658 7.1809C121.658 7.37504 121.631 7.58683 121.578 7.81626C121.524 8.04129 121.446 8.2619 121.344 8.4781C121.095 8.99433 120.763 9.40246 120.35 9.70249C119.842 10.0643 119.259 10.2452 118.601 10.2452Z" fill="url(#paint17_linear_1202_169)"/>
<defs>
<linearGradient id="paint0_linear_1202_169" x1="63.9657" y1="67.2877" x2="63.9657" y2="-2.42042" gradientUnits="userSpaceOnUse">
<stop stop-color="#FF50FF"/>
<stop offset="1" stop-color="white"/>
</linearGradient>
<linearGradient id="paint1_linear_1202_169" x1="63.9657" y1="67.2877" x2="63.9657" y2="-2.42042" gradientUnits="userSpaceOnUse">
<stop stop-color="#FF50FF"/>
<stop offset="1" stop-color="white"/>
</linearGradient>
<linearGradient id="paint2_linear_1202_169" x1="63.9657" y1="67.2877" x2="63.9657" y2="-2.42042" gradientUnits="userSpaceOnUse">
<stop stop-color="#FF50FF"/>
<stop offset="1" stop-color="white"/>
</linearGradient>
<linearGradient id="paint3_linear_1202_169" x1="63.9657" y1="67.2877" x2="63.9657" y2="-2.42042" gradientUnits="userSpaceOnUse">
<stop stop-color="#FF50FF"/>
<stop offset="1" stop-color="white"/>
</linearGradient>
<linearGradient id="paint4_linear_1202_169" x1="63.9657" y1="67.2877" x2="63.9657" y2="-2.42042" gradientUnits="userSpaceOnUse">
<stop stop-color="#FF50FF"/>
<stop offset="1" stop-color="white"/>
</linearGradient>
<linearGradient id="paint5_linear_1202_169" x1="63.9657" y1="67.2877" x2="63.9657" y2="-2.42042" gradientUnits="userSpaceOnUse">
<stop stop-color="#FF50FF"/>
<stop offset="1" stop-color="white"/>
</linearGradient>
<linearGradient id="paint6_linear_1202_169" x1="63.9657" y1="67.2877" x2="63.9657" y2="-2.42042" gradientUnits="userSpaceOnUse">
<stop stop-color="#FF50FF"/>
<stop offset="1" stop-color="white"/>
</linearGradient>
<linearGradient id="paint7_linear_1202_169" x1="63.9657" y1="67.2877" x2="63.9657" y2="-2.42042" gradientUnits="userSpaceOnUse">
<stop stop-color="#FF50FF"/>
<stop offset="1" stop-color="white"/>
</linearGradient>
<linearGradient id="paint8_linear_1202_169" x1="63.9657" y1="67.2877" x2="63.9657" y2="-2.42042" gradientUnits="userSpaceOnUse">
<stop stop-color="#FF50FF"/>
<stop offset="1" stop-color="white"/>
</linearGradient>
<linearGradient id="paint9_linear_1202_169" x1="63.9657" y1="67.2877" x2="63.9657" y2="-2.42042" gradientUnits="userSpaceOnUse">
<stop stop-color="#FF50FF"/>
<stop offset="1" stop-color="white"/>
</linearGradient>
<linearGradient id="paint10_linear_1202_169" x1="63.9657" y1="67.2877" x2="63.9657" y2="-2.42042" gradientUnits="userSpaceOnUse">
<stop stop-color="#FF50FF"/>
<stop offset="1" stop-color="white"/>
</linearGradient>
<linearGradient id="paint11_linear_1202_169" x1="63.9657" y1="67.2877" x2="63.9657" y2="-2.42042" gradientUnits="userSpaceOnUse">
<stop stop-color="#FF50FF"/>
<stop offset="1" stop-color="white"/>
</linearGradient>
<linearGradient id="paint12_linear_1202_169" x1="63.9657" y1="67.2877" x2="63.9657" y2="-2.42042" gradientUnits="userSpaceOnUse">
<stop stop-color="#FF50FF"/>
<stop offset="1" stop-color="white"/>
</linearGradient>
<linearGradient id="paint13_linear_1202_169" x1="63.9657" y1="67.2877" x2="63.9657" y2="-2.42042" gradientUnits="userSpaceOnUse">
<stop stop-color="#FF50FF"/>
<stop offset="1" stop-color="white"/>
</linearGradient>
<linearGradient id="paint14_linear_1202_169" x1="63.9657" y1="67.2877" x2="63.9657" y2="-2.42042" gradientUnits="userSpaceOnUse">
<stop stop-color="#FF50FF"/>
<stop offset="1" stop-color="white"/>
</linearGradient>
<linearGradient id="paint15_linear_1202_169" x1="63.9657" y1="67.2877" x2="63.9657" y2="-2.42042" gradientUnits="userSpaceOnUse">
<stop stop-color="#FF50FF"/>
<stop offset="1" stop-color="white"/>
</linearGradient>
<linearGradient id="paint16_linear_1202_169" x1="63.9657" y1="67.2877" x2="63.9657" y2="-2.42042" gradientUnits="userSpaceOnUse">
<stop stop-color="#FF50FF"/>
<stop offset="1" stop-color="white"/>
</linearGradient>
<linearGradient id="paint17_linear_1202_169" x1="63.9657" y1="67.2877" x2="63.9657" y2="-2.42042" gradientUnits="userSpaceOnUse">
<stop stop-color="#FF50FF"/>
<stop offset="1" stop-color="white"/>
</linearGradient>
</defs>
</svg>
